<?xml version="1.0" encoding="utf-8"?>
<!-- Generator: Adobe Illustrator 15.0.2, SVG Export Plug-In . SVG Version: 6.00 Build 0)  -->
<!DOCTYPE svg PUBLIC "-//W3C//DTD SVG 1.1 Tiny//EN" "http://www.w3.org/Graphics/SVG/1.1/DTD/svg11-tiny.dtd">
<svg version="1.1" baseProfile="tiny" xmlns="http://www.w3.org/2000/svg" xmlns:xlink="http://www.w3.org/1999/xlink" x="0px"
	 y="0px" width="608px" height="200px" viewBox="0 0 608 200" overflow="inherit" xml:space="preserve">
<g id="Layer_2">
</g>
<g id="Layer_1">
	<path fill="#FFFFFF" d="M367.943,94.116c-0.099-3.968-1.716-7.667-4.578-10.399c-1.195-1.149-2.585-2.069-4.086-2.753
		c0.011-0.004,0.258-0.075,0.258-0.075c2.252-0.654,3.725-2.724,3.727-4.954c0.003-0.484-0.079-0.965-0.221-1.442
		c-0.382-1.321-1.248-2.422-2.462-3.086c-1.2-0.669-2.599-0.815-3.915-0.432c0,0-1.021,0.287-2.184,0.633
		c0.213-0.105,0.778-0.382,0.778-0.382c1.229-0.609,2.155-1.666,2.604-2.975c0.174-0.544,0.272-1.104,0.271-1.655
		c0.008-0.785-0.179-1.561-0.545-2.288c-0.62-1.235-1.66-2.148-2.957-2.601c-1.317-0.444-2.715-0.348-3.946,0.266
		c0,0-1.792,0.886-3.244,1.606c-0.395-0.513-0.798-1.019-1.205-1.512c1.471-1.294,3.154-2.802,3.154-2.802
		c1.042-0.915,1.648-2.17,1.729-3.553c0.009-0.105,0.009-0.202,0.02-0.313c-0.009-1.267-0.453-2.468-1.317-3.414
		c-0.902-1.044-2.163-1.646-3.54-1.729c-1.375-0.087-2.696,0.372-3.735,1.291c0,0-1.928,1.708-3.434,3.059
		c-0.549-0.387-1.675-1.186-1.684-1.196c0,0-0.109-0.08-0.116-0.091c1.015-1.349,2.055-2.738,2.055-2.738
		c0.68-0.929,1.053-2.018,1.042-3.097c0.005-1.569-0.709-3.116-2.059-4.132c-2.275-1.71-5.511-1.259-7.216,1.019
		c0,0-1.589,2.105-2.76,3.651c-0.706-0.336-1.4-0.641-2.112-0.943c0.708-1.417,1.447-2.854,1.447-2.854
		c0.376-0.735,0.568-1.546,0.568-2.339c-0.004-0.534-0.088-1.075-0.258-1.6c-0.422-1.309-1.333-2.377-2.568-3.003
		c-1.216-0.622-2.625-0.737-3.931-0.311c-1.295,0.42-2.367,1.331-3.016,2.558c0,0-1.312,2.6-2.209,4.36
		c-0.555-0.116-1.104-0.215-1.648-0.309c0.237-1.578,0.493-3.209,0.493-3.209c0.051-0.282,0.073-0.553,0.077-0.84
		c-0.002-1.075-0.333-2.117-0.97-3.002c-0.816-1.122-2.013-1.855-3.37-2.076c-1.366-0.223-2.726,0.101-3.839,0.911
		c-1.139,0.807-1.855,1.992-2.082,3.365c0,0-0.354,2.179-0.631,3.943c-0.013,0-0.064,0-0.064,0
		c-1.479,0.034-3.046,0.237-4.579,0.409c-0.422-1.763-0.93-3.823-0.93-3.823c-0.34-1.345-1.156-2.475-2.332-3.188
		c-1.188-0.726-2.566-0.938-3.914-0.609c-2.349,0.566-3.93,2.689-3.937,5.012c-0.004,0.398,0.045,0.809,0.148,1.214
		c0,0,0.45,1.856,0.839,3.478c-1.696,0.521-3.342,1.14-4.982,1.84c-0.506-1.229-1.007-2.444-1.007-2.444
		c-1.096-2.631-4.116-3.881-6.746-2.785c-1.983,0.823-3.184,2.745-3.182,4.767c0.001,0.661,0.126,1.328,0.397,1.973
		c0,0,0.825,1.99,1.475,3.552c-0.58,0.401-1.149,0.819-1.704,1.254c-0.876-1.059-1.746-2.12-1.746-2.12
		c-1.797-2.2-5.059-2.52-7.26-0.715c-1.238,1.019-1.878,2.492-1.875,3.989c-0.005,1.155,0.361,2.313,1.162,3.266
		c0,0,1.111,1.366,2.073,2.539c-0.567,0.637-1.122,1.306-1.683,1.986c-1.558-0.771-3.462-1.699-3.462-1.699
		c-2.563-1.254-5.661-0.192-6.916,2.363c-0.349,0.717-0.53,1.48-0.534,2.273c0.009,0.556,0.095,1.124,0.289,1.669
		c0.445,1.299,1.375,2.358,2.614,2.961c0,0,1.097,0.541,2.232,1.094c-0.472,0.871-0.897,1.763-1.307,2.654
		c-1.662-0.381-3.556-0.814-3.556-0.814c-2.785-0.639-5.552,1.101-6.189,3.869c-0.081,0.392-0.136,0.778-0.138,1.168
		c0.004,2.34,1.63,4.478,4.015,5.026c0,0,0.268,0.057,0.31,0.067c-2.109,0.768-4.052,1.951-5.643,3.611
		c-2.666,2.787-4.105,6.4-4.099,10.223c-0.007,0.126-0.003,0.242-0.009,0.377c0.081,3.931,1.682,7.617,4.543,10.355
		c2.345,2.234,5.311,3.572,8.482,3.961c7.057,22.304,27.963,37.41,51.511,36.894c23.702-0.536,43.975-16.708,49.901-39.512
		c6.556-1.596,11.423-7.549,11.424-14.392C367.949,94.313,367.943,94.116,367.943,94.116"/>
	<path fill="#FFFFFF" d="M304.873,32.373c-1.497,1.078-2.569,2.562-3.165,4.256c-0.735-1.524-1.88-2.823-3.36-3.723
		c-2.024-1.229-4.406-1.604-6.703-1.04c-3.905,0.955-6.632,4.379-6.729,8.381c-2.464-2.38-6.15-3.287-9.515-1.888
		c-3.082,1.291-5.094,4.193-5.354,7.489c-2.578-0.588-5.391-0.028-7.584,1.769c-2.056,1.696-3.233,4.195-3.236,6.86
		c0.002,0.667,0.184,1.309,0.343,1.954c-3.563-0.328-7.109,1.481-8.772,4.869c-0.614,1.231-0.923,2.54-0.923,3.896
		c0.005,0.979,0.154,1.939,0.487,2.872c0.14,0.414,0.341,0.798,0.528,1.173c-3.271,0.694-6.041,3.105-6.842,6.566l-0.226,1.987
		c0,1.746,0.594,3.322,1.475,4.703c-0.609,0.479-1.245,0.911-1.772,1.461c-3.305,3.461-5.143,7.99-5.137,12.778l0.019,0.448
		c0.084,4.915,2.091,9.509,5.661,12.946c2.32,2.198,5.156,3.729,8.276,4.488c8.162,22.637,30.177,37.922,54.357,37.391
		c24.43-0.549,45.831-17.031,52.813-40.316c7.119-2.71,12.124-9.604,12.127-17.277l0.008-0.393l-0.002,0.004
		c-0.111-4.951-2.164-9.568-5.713-12.986c-0.15-0.127-0.325-0.233-0.463-0.356c0.907-1.404,1.497-3.015,1.497-4.749l-0.365-2.479
		c-0.656-2.269-2.152-4.146-4.229-5.284c-0.24-0.133-0.508-0.19-0.766-0.3c0.077-0.432,0.221-0.845,0.226-1.282
		c0.004-1.359-0.303-2.679-0.931-3.92c-1.038-2.125-2.856-3.708-5.092-4.465c-0.458-0.154-0.931-0.154-1.392-0.233
		c0.211-0.648,0.356-1.328,0.401-2.036l-0.004-0.54c0.017-2.161-0.787-4.252-2.22-5.871c-1.572-1.77-3.742-2.824-6.095-2.968
		c-0.85-0.043-1.662,0.158-2.473,0.336c-0.165-2.545-1.396-4.944-3.452-6.491c-2.681-2.018-6.136-2.262-8.992-0.971
		c-0.002-0.046-0.043-0.279-0.043-0.279c-0.742-2.26-2.296-4.09-4.394-5.162c-2.11-1.078-4.504-1.269-6.751-0.54
		c-1.047,0.341-1.999,0.879-2.846,1.546c-0.113-0.208-0.178-0.445-0.312-0.635c-1.388-1.917-3.432-3.174-5.77-3.558
		C309.141,30.424,306.786,30.98,304.873,32.373 M300.084,46.766l0.836-0.098l6.306-0.539l0.748-2.862l0.647-3.963
		c0.052-0.384,0.258-0.714,0.579-0.944c0.326-0.235,0.699-0.316,1.094-0.257c0.395,0.07,0.718,0.269,0.938,0.585
		c0.185,0.26,0.294,0.548,0.298,0.856l-0.034,0.223c0.008,0.018-1.083,6.776-1.083,6.776l7.829,1.476l1.34-2.446l2.235-4.36
		c0.169-0.352,0.47-0.603,0.84-0.727c0.384-0.123,0.776-0.086,1.129,0.092c0.336,0.176,0.591,0.474,0.714,0.854l0.074,0.446
		c-0.006,0.235-0.042,0.45-0.162,0.667l-3.22,6.317l8.268,3.703l1.87-2.312l2.731-3.658c0.509-0.646,1.429-0.771,2.08-0.289
		c0.515,0.394,0.558,0.949,0.556,1.171c0.015,0.23-0.036,0.56-0.276,0.876c-0.016,0.007-4.173,5.555-4.173,5.555
		s0.741,0.613,1.488,1.233c-0.005,0.032-0.003,0.188-0.003,0.188l5.629,3.991l2.932-2.604c1.315-1.174,2.171-1.931,2.761-2.516
		c-0.018,0.011-0.05,0.104-0.05,0.104c0.29-0.255,0.654-0.384,1.055-0.362c0.396,0.024,0.745,0.197,1.017,0.498
		c0.232,0.262,0.356,0.592,0.367,0.961l-0.009,0.058c-0.023,0.427-0.199,0.778-0.486,1.04c-0.016,0-5.795,5.132-5.795,5.132
		l5.203,6.521l2.725-1.254l3.256-1.608c0.341-0.178,0.74-0.204,1.104-0.077c0.379,0.12,0.664,0.38,0.839,0.733
		c0.106,0.208,0.151,0.431,0.147,0.646c0.007,0.165-0.02,0.319-0.066,0.474c-0.125,0.384-0.373,0.674-0.742,0.847
		c-0.002,0.003-0.771,0.387-0.771,0.387l2.669,6.862l2.175-0.644c0.382-0.101,0.762-0.058,1.121,0.133
		c0.339,0.187,0.577,0.495,0.689,0.866c0.013,0.013,0.058,0.408,0.058,0.408c0.013,0.651-0.423,1.232-1.049,1.415l-9.845,2.867
		l9.086,4.123c1.157,0.53,2.191,1.223,3.064,2.062c2.145,2.048,3.36,4.824,3.431,7.801c0.006,0.014,0.004,0.228,0.004,0.228
		c0.009,5.042-3.611,9.577-8.595,10.791l-2.153,0.517l-0.549,2.143c-5.515,21.145-24.588,36.259-46.41,36.752
		c-21.662,0.467-41.367-13.641-47.906-34.31l-0.713-2.269l-2.356-0.296c-2.466-0.298-4.666-1.316-6.366-2.957
		c-2.134-2.049-3.354-4.811-3.415-7.752l-0.015-0.303c0.009-2.863,1.105-5.589,3.09-7.666c1.136-1.18,2.555-2.085,4.244-2.703
		l11.735-4.263l-12.485-2.882c-0.66-0.15-1.136-0.753-1.142-1.424l0.045-0.326c0.117-0.508,0.445-0.796,0.657-0.914
		c0.184-0.12,0.589-0.302,1.104-0.18l6.423,1.467l4.152-8.521l-3.266-1.718l-2.248-1.099c-0.34-0.167-0.603-0.459-0.722-0.834
		c-0.055-0.161-0.09-0.317-0.09-0.479c-0.002-0.217,0.05-0.433,0.163-0.637c0.356-0.725,1.227-1.029,1.943-0.671l6.083,2.974
		l5.451-6.463l-1.884-2.464l-0.837-1.033c-0.549-0.661-0.975-1.144-1.354-1.549c0.002,0.004,0.112,0.049,0.112,0.049
		c-0.281-0.328-0.327-0.688-0.325-0.924c-0.006-0.441,0.192-0.86,0.521-1.134c0.628-0.513,1.546-0.423,2.067,0.208l3.944,4.813
		l6.815-4.978l-1.042-2.735l-1.474-3.548c-0.077-0.184-0.109-0.366-0.107-0.563c-0.008-0.454,0.231-1.067,0.891-1.352
		c0.753-0.309,1.601,0.043,1.913,0.788l2.46,5.895l3.427-1.469c1.5-0.649,3.059-1.216,4.635-1.707l3.303-1.036l-1.663-6.828
		c0.002-0.008-0.046-0.36-0.046-0.36c0.005-0.569,0.391-1.239,1.11-1.419c0.39-0.092,0.777-0.039,1.12,0.169
		c0.34,0.21,0.567,0.523,0.653,0.907l1.708,7L300.084,46.766z M328.502,41.75c0,0-0.104,0.146-0.162,0.229
		c-0.059,0.064-0.114,0.102-0.15,0.165L328.502,41.75z M354.821,55.938l-0.021-0.015L354.821,55.938z"/>
	<path d="M175.304,159.007c0.268-1.354,0.435-2.029,0.732-3.077c0.571-1.973,1.362-4,2.062-5.469
		c0.36-0.755,0.754-1.158,1.109-1.156c0.34,0.003,0.578,0.405,0.586,1.045c-0.004,0.62-0.186,1.396-0.549,2.275
		c-0.54,1.306-1.912,3.59-3.588,5.86C175.474,158.76,175.423,158.856,175.304,159.007 M174.157,154.574
		c-0.372,1.046-0.739,2.281-1.089,3.575c-0.576,2.436-0.86,4.209-0.871,5.633c0.005,1.42,0.514,2.93,1.189,3.604
		c0.347,0.363,1.046,0.582,1.812,0.582c2.103,0.002,3.988-0.824,7.119-3.228l-0.004-2.565c-2.026,2.188-4.643,3.738-6.191,3.731
		c-0.981-0.002-1.386-0.592-1.412-2.123c0.033-0.797,0.062-1.049,0.166-1.822c0.505-0.611,0.878-1.074,1.12-1.375
		c1.58-1.919,2.862-3.802,3.921-5.547c1.077-1.86,1.694-3.702,1.695-5.145c0.002-1.517-0.899-2.684-2.069-2.681
		c-0.709-0.001-1.415,0.341-2.15,1.083c-1.178,1.256-1.847,2.539-2.998,5.638c-0.061,0.176-0.083,0.293-0.117,0.323L174.157,154.574
		z"/>
	<path d="M190.201,162.582c-1.855,2.31-3.108,3.364-3.971,3.368c-0.828-0.009-1.448-1.209-1.452-2.843
		c-0.007-1.603,0.594-3.272,1.568-4.274c0.576-0.626,1.533-1.087,2.205-1.09c0.667-0.002,1.25,0.462,2.292,1.883L190.201,162.582z
		 M191.275,157.775c-1.103-1.415-1.906-1.915-3.053-1.91c-1.152,0.009-2.602,0.701-3.722,1.824c-1.487,1.508-2.37,3.756-2.377,5.967
		c0,2.412,1.492,4.345,3.329,4.351c1.112-0.006,2.465-0.907,4.231-2.803l-0.006,0.337c0.011,1.72,1.235,2.536,2.266,2.496
		c3.791-0.133,9.063-3.434,15.809-10.07l-1.002-1.673c-2.523,3.71-9.028,7.896-10.331,8.505c-0.617,0.272-2.706,1.141-3.784,1.021
		c-0.226-0.023-0.413-0.427-0.415-0.75c0.009-0.517,0.501-3.013,1.081-5.254l3.128-12.168l-2.509-0.004L191.275,157.775z"/>
	<path d="M200.389,155.683l0.617-5.973c0.321-1.88,1.018-2.805,2.222-2.798c0.713-0.004,1.168,0.401,1.168,1.04
		c0.002,0.395-0.179,0.982-0.554,1.754l-2.773,5.968L200.389,155.683z"/>
	<path d="M206.637,156.328c0.104-0.192-0.223-0.268-0.228-0.463c0.004-0.71,0.494-2.035,0.962-2.462
		c0.15-0.18,0.509-0.242,1.132-0.219l1.104,0.064c0.435,0.092,0.591,0.244,0.587,0.583c0.008,0.504-0.332,1.141-1.233,2.347
		c-0.173,0.24-0.247,0.336-0.358,0.527c1.184,1.479,1.629,2.405,1.611,3.531c0.014,0.803-0.205,1.981-0.576,3.116
		c-0.33,1.055-0.609,1.596-1.188,2.518l0.182,0.005c0.92,0,2.063-0.678,4.337-2.617c0.565-0.465,0.83-0.68,1.331-1.082l-0.002,2.562
		l-0.462,0.367c-2.53,1.888-4.013,2.642-5.239,2.642c-0.558,0.001-0.927-0.085-1.667-0.416c-0.74,0.464-1.32,0.575-2.645,0.579
		c-0.931,0.002-1.206-0.158-1.204-0.859c0.002-0.646,0.152-1.411,0.371-1.759c0.086-0.131,0.259-0.208,0.432-0.212
		c0.307,0.004,0.734,0.063,1.252,0.154c0.316,0.056,0.655,0.09,0.745,0.077c0.307,0.006,0.71-0.517,1.048-1.388
		c0.646-1.621,0.938-2.882,0.956-4.237c-0.008-0.466-0.025-0.556-0.219-0.837c-0.092-0.153-0.146-0.266-0.265-0.486
		C207.259,158.548,206.107,157.164,206.637,156.328"/>
	<path d="M237.172,165.534c1.686-0.952,2.703-1.775,4.023-3.357l-0.004,2.564c-1.195,1.135-2.604,2.032-4.028,2.552L237.172,165.534
		z M235.221,158.693c-1.75,1.274-2.797,1.694-4.086,1.703c-2.495-0.005-4.201-1.887-4.208-4.722
		c0.005-4.585,3.835-8.469,8.296-8.458c2.197,0,3.879,1.134,3.887,2.613c-0.01,0.457-0.164,0.676-0.643,0.961
		c-0.38,0.179-0.951,0.367-1.179,0.36c-0.269,0.009-0.483-0.217-0.776-0.761c-0.172-0.38-0.26-0.532-0.51-0.778
		c-0.312-0.31-0.778-0.428-1.407-0.428c-1.139,0.001-2.358,0.491-3.094,1.3c-1.136,1.261-2.096,3.593-2.09,5.232
		c-0.013,1.66,0.941,2.616,2.522,2.612c0.951,0.013,1.971-0.429,2.98-1.293l0.984-0.984c0.399-0.431,0.651-0.705,0.764-0.891
		c0.288-0.373,0.449-0.527,0.663-0.49l0.093-0.009c0.029,0.006,0.152,0.004,0.309,0.006h0.255c0.447-0.002,0.604,0.08,0.612,0.333
		c-0.004,0.253-0.225,1.268-0.696,3.028c-0.062,0.237-0.108,0.551-0.21,0.886l-0.242,0.99c-0.783,3.079-1.305,4.435-2.245,5.661
		c-1.23,1.58-3.06,2.399-5.242,2.4c-1.485,0.002-3.321-0.492-3.972-1.036c-0.148-0.138-0.241-0.38-0.242-0.592
		c0.001-0.397,0.273-1.203,0.584-1.551c0.086-0.116,0.233-0.206,0.363-0.199c0.275-0.007,0.657,0.156,1.133,0.423
		c0.964,0.583,1.959,0.898,2.911,0.89c0.872,0.008,1.564-0.202,2.146-0.735c0.805-0.674,1.453-2.43,2.156-5.689L235.221,158.693z"/>
	<path d="M246.137,158.151c-1.3,2.609-2.899,4.736-5.046,6.714l0.008-2.535c1.492-1.652,2.499-3.199,3.548-5.374
		c-0.272-0.506-0.428-0.973-0.428-1.367c0.011-0.396,0.154-1.066,0.343-1.572c0.121-0.315,0.358-0.395,1.049-0.364
		c0.974,0.027,1.102,0.058,1.322,0.182c0.188,0.125,0.273,0.439,0.27,0.832c0.006,0.554-0.081,0.986-0.463,1.854
		c1.024,0.36,1.145,0.427,1.537,0.619c1.37,0.66,1.861,1.371,1.867,2.827c0.002,0.865-0.261,1.842-0.877,3.422
		c-0.329,0.89-0.494,1.501-0.491,1.81c-0.007,0.31,0.156,0.536,0.465,0.53c0.861,0,2.467-1.18,4.85-3.552l0.004,2.565
		c-2.539,2.181-4.553,3.262-6.091,3.264c-1.104-0.004-1.869-0.95-1.871-2.372c0.007-0.766,0.244-1.672,0.855-3.083
		c0.472-1.14,0.687-1.873,0.68-2.404C247.672,159.285,247.145,158.602,246.137,158.151"/>
	<path d="M256.636,161.413c0.484-2.216,2.093-4.103,3.415-4.092c0.444-0.011,0.701,0.236,0.701,0.665
		C260.758,159.228,259.191,160.519,256.636,161.413 M265.564,162.179c-3.081,2.772-5.331,3.949-7.667,3.945
		c-1.024,0-1.572-0.77-1.568-2.279c-0.006-0.125,0.021-0.281,0.042-0.455l0.59-0.253c2.297-0.916,3.523-1.634,4.394-2.498
		c0.878-0.875,1.352-1.879,1.36-2.932c-0.002-1.438-0.871-2.267-2.387-2.272c-3.388-0.001-6.464,3.974-6.462,8.35
		c-0.002,1.326,0.557,2.981,1.253,3.792c0.345,0.298,0.795,0.427,1.636,0.435c2.87,0.001,5.733-1.018,8.807-3.268L265.564,162.179z"
		/>
	<path d="M273.476,162.554c-0.037,0.028-0.086,0.101-0.152,0.18c-1.324,1.819-2.891,3.11-3.748,3.11
		c-0.874,0.004-1.521-1.199-1.519-2.833c-0.004-2.715,1.846-5.357,3.769-5.366c0.633,0.007,1.09,0.384,1.982,1.459
		c0.116,0.151,0.233,0.249,0.283,0.332l0.096,0.097L273.476,162.554z M280.014,162.179c-1.894,2.071-3.482,3.384-4.133,3.395
		c-0.217,0.002-0.349-0.251-0.34-0.594c-0.009-0.399,0.246-1.776,0.494-2.803l1.577-6.37l-2.491,0.005l-0.544,1.932
		c-0.843-1.356-1.792-1.977-3.012-1.98c-1.193,0.008-2.681,0.748-3.826,1.928c-1.434,1.467-2.332,3.748-2.332,5.942
		c0.009,2.33,1.548,4.275,3.362,4.273c1.168-0.004,2.306-0.729,4.243-2.828c-0.022,0.233-0.013,0.492-0.015,0.647
		c-0.006,1.447,0.575,2.209,1.552,2.209c1.435,0.002,3.148-0.98,5.455-3.196L280.014,162.179z"/>
	<path d="M283.771,149.46l2.518,0.002l-2.121,6.486l0.331-0.017c0.587-0.032,1.021-0.061,1.397-0.061c0.321,0,0.57,0.03,1.062,0.066
		l-0.359,1.807c-0.522-0.037-0.799-0.007-1.249-0.003c-0.565,0-1.032-0.03-1.798,0.03l-0.159,0.466
		c-0.642,2.221-0.854,3.54-0.859,4.87c0.004,1.564,0.33,2.584,0.918,2.594c0.271-0.011,0.749-0.223,1.274-0.596
		c1.17-0.802,1.952-1.51,3.356-2.93l-0.012,2.563c-1.225,1.104-1.903,1.64-2.854,2.215c-1.153,0.676-2.065,0.98-2.835,0.982
		c-1.481,0.011-2.489-1.721-2.496-4.317c0.007-1.402,0.186-2.515,0.896-4.956l0.235-0.879l-0.951,0.148l0.089-1.229
		c0.032-0.285,0.37-0.402,1.188-0.467c0.127-0.023,0.137-0.03,0.179-0.028L283.771,149.46z"/>
	<path d="M290.626,161.404c0.49-2.207,2.086-4.096,3.427-4.09c0.431,0,0.701,0.232,0.693,0.676
		C294.752,159.222,293.199,160.522,290.626,161.404 M299.564,162.177c-3.075,2.781-5.328,3.951-7.662,3.952
		c-1.033-0.005-1.581-0.771-1.569-2.282c-0.006-0.126,0.02-0.278,0.046-0.459l0.583-0.251c2.283-0.924,3.519-1.634,4.382-2.494
		c0.897-0.888,1.356-1.894,1.351-2.941c0.008-1.438-0.854-2.261-2.361-2.265c-3.387-0.002-6.474,3.972-6.481,8.346
		c0.01,1.314,0.546,2.989,1.271,3.789c0.34,0.303,0.797,0.432,1.637,0.436c2.864-0.006,5.719-1.014,8.808-3.262L299.564,162.177z"/>
	<path d="M299.897,161.777c1.522-1.996,2.31-3.262,3.573-5.449c-0.15-0.147-0.211-0.28-0.219-0.463c0-0.701,0.497-2.035,0.965-2.464
		c0.152-0.172,0.529-0.244,1.139-0.219l1.1,0.064c0.427,0.092,0.592,0.242,0.597,0.585c0.008,0.5-0.337,1.137-1.24,2.344
		c-0.176,0.253-0.242,0.341-0.372,0.525c1.2,1.484,1.646,2.4,1.64,3.534c-0.002,0.802-0.216,1.985-0.592,3.112
		c-0.334,1.051-0.604,1.602-1.19,2.528l0.187-0.005c0.914,0,2.057-0.674,4.354-2.607c0.53-0.474,0.809-0.688,1.306-1.092v2.571
		l-0.458,0.358c-2.521,1.891-4.008,2.642-5.239,2.646c-0.541,0.004-0.929-0.089-1.66-0.423c-0.742,0.467-1.333,0.585-2.644,0.579
		c-0.929,0.004-1.206-0.156-1.215-0.854c0.002-0.64,0.161-1.424,0.386-1.757c0.086-0.126,0.224-0.212,0.426-0.217
		c0.298,0.001,0.726,0.062,1.258,0.155c0.298,0.06,0.646,0.083,0.734,0.092c0.312,0.004,0.71-0.531,1.053-1.388
		c0.647-1.625,0.935-2.901,0.95-4.25c0.013-0.466-0.021-0.554-0.217-0.828c-0.079-0.162-0.15-0.285-0.274-0.493
		c-0.116,0.189-0.192,0.299-0.395,0.64c-1.106,1.792-1.956,3.019-2.86,4.196c-0.541,0.644-0.808,0.98-1.521,1.718l-0.002-2.562
		L299.897,161.777z"/>
	<path d="M314.87,149.466l2.534-0.008l-2.142,6.499l0.346-0.025c0.583-0.028,1.01-0.06,1.385-0.064c0.339,0,0.585,0.038,1.076,0.064
		l-0.36,1.806c-0.531-0.026-0.806,0.007-1.261,0.006c-0.551,0-1.01-0.032-1.797,0.032l-0.152,0.466
		c-0.635,2.215-0.868,3.534-0.87,4.859c0.006,1.569,0.35,2.597,0.937,2.593c0.281,0.002,0.725-0.219,1.253-0.594
		c1.177-0.79,1.971-1.502,3.375-2.919l-0.004,2.556c-1.248,1.111-1.917,1.644-2.87,2.216c-1.126,0.675-2.08,0.984-2.826,0.992
		c-1.485-0.008-2.498-1.729-2.502-4.316c-0.007-1.413,0.188-2.523,0.879-4.956l0.26-0.898l-0.954,0.161l0.098-1.229
		c0.026-0.29,0.365-0.41,1.163-0.466c0.118-0.028,0.151-0.023,0.195-0.027L314.87,149.466z"/>
	<path d="M337.792,165.753c-1.42,1.508-2.654,2.123-3.862,2.115c-1.501,0.01-2.584-1.398-2.577-3.458
		c-0.011-1.181,0.246-2.502,0.663-4.083l2.224-7.75c0.208-0.709,0.282-1.181,0.309-1.7c-0.005-0.242-0.021-0.366-0.112-0.362
		c-0.282-0.004-1.648,0.945-3.034,2.106l-0.45,0.422l-0.56-1.645c2.719-2.681,4.87-4.217,5.981-4.219
		c0.643,0.003,0.94,0.556,0.935,1.662c0.009,1.328-0.442,3.547-1.488,7.146l-1.081,3.721c-0.3,1.025-0.611,2.353-0.8,3.283
		c-0.097,0.606-0.116,0.945-0.126,1.284c0.006,0.832,0.246,1.233,0.791,1.231c1.036,0.002,2.466-1.354,3.993-3.726
		c1.55-2.496,3.311-5.972,4.232-8.618c0.493-1.426,0.812-2.593,0.939-3.772c0.12-1.037,0.262-1.561,0.586-1.96
		c0.146-0.147,0.424-0.219,1.067-0.223c0.925,0.007,1.227,0.187,1.237,0.692c-0.004,0.604-0.259,1.649-0.572,2.58
		c-0.116,0.303-0.18,0.493-0.3,1.164l-0.855,4.185c-0.397,1.82-0.691,4.717-0.685,6.482c0.006,1.967,0.42,3.131,1.096,3.129
		c0.687-0.002,1.718-1.04,2.731-2.833c0.927-1.624,1.995-4.008,2.838-6.215c0.395-1.047,0.606-1.722,1.04-3.213
		c-0.223-0.484-0.26-0.7-0.256-1.189c0.007-1.175,0.283-2.503,0.772-3.858c0.285-0.766,0.482-0.888,1.329-0.894l0.36-0.002
		c0.687-0.03,0.839,0.164,0.843,0.909c-0.002,1.16-0.443,3.133-1.087,5.078c0.484,1.245,1.87,2.02,5.693,2.979l-0.56,1.224
		c-2.47-0.21-4.93-1.061-5.813-2.429c-0.118,0.506-0.393,1.082-0.393,1.082c-2.028,5.516-3.669,8.625-5.514,10.568
		c-0.827,0.859-1.763,1.298-2.588,1.287c-0.583-0.001-1.196-0.24-1.628-0.704c-0.924-1.051-1.245-2.312-1.325-5.086
		c0.03-1.253,0.071-1.875,0.165-2.638C340.399,162.491,339.261,164.175,337.792,165.753"/>
	<path d="M370.092,162.71c-1.04,0.841-1.692,1.094-2.805,1.345c-0.328,0.095-1.304,0.457-2.767-0.608
		c-1.675,3.495-3.575,4.552-5.905,4.561c-2.411-0.002-3.854-1.632-3.848-4.374c0.004-2.771,1.417-5.486,3.573-6.873
		c1.008-0.648,3.741-1.78,5.642-0.948c2.295,1.019,1.155,2.991,0.405,2.511c-2.979-1.968-4.581-0.233-5.301,0.436
		c-0.995,0.898-1.675,2.688-1.671,4.562c0.002,1.729,0.674,2.719,1.806,2.719c1.486-0.006,3.093-1.854,3.489-4.033
		c-0.03-0.071-0.03-0.071-0.037-0.138c-0.188-0.613-0.259-1.004-0.251-1.512c0.001-0.418,0.062-1.325,0.313-2.299
		c0.124-0.583,0.418-0.502,0.633-0.866c0,0,0.613-1.241,1.81-0.276c0.222,0.255,0.215,1.112,0.208,1.786
		c0.014,0.836-0.103,1.559-0.467,2.824c1.312,1.419,2.341,0.807,2.764,0.646c0.457-0.181,1.323-0.607,2.104-1.531L370.092,162.71z"
		/>
	<path d="M373.574,158.141c-1.3,2.629-2.712,3.99-3.721,4.77l-0.298-1.993c0.882-0.938,1.19-1.141,2.544-3.974
		c-0.275-0.486-0.436-0.952-0.448-1.347c0.013-0.402,0.162-1.082,0.359-1.571c0.116-0.319,0.369-0.41,1.041-0.378
		c0.974,0.035,1.1,0.059,1.313,0.187c0.195,0.131,0.284,0.434,0.294,0.839c-0.008,0.558-0.103,0.98-0.479,1.847
		c1.028,0.373,1.145,0.433,1.544,0.613c1.357,0.666,1.848,1.381,1.851,2.826c-0.007,0.868-0.229,1.853-0.852,3.425
		c-0.352,0.894-0.489,1.514-0.502,1.813c0.004,0.313,0.158,0.526,0.459,0.53c0.864,0.006,2.479-1.176,4.822-3.547l0.012,2.564
		c-2.521,2.177-4.527,3.255-6.061,3.258c-1.113,0.002-1.877-0.948-1.87-2.368c-0.009-0.773,0.224-1.67,0.836-3.079
		c0.464-1.145,0.695-1.89,0.702-2.412C375.118,159.276,374.593,158.602,373.574,158.141"/>
	<path d="M128.674,165.758c-1.411,1.503-2.642,2.116-3.853,2.12c-1.499,0.003-2.574-1.406-2.576-3.47
		c0.002-1.181,0.244-2.507,0.678-4.076l2.199-7.757c0.233-0.712,0.296-1.175,0.321-1.698c0.008-0.242-0.025-0.368-0.109-0.368
		c-0.289,0.006-1.65,0.945-3.027,2.12l-0.47,0.408l-0.554-1.635c2.716-2.678,4.866-4.218,5.98-4.225
		c0.646,0.009,0.952,0.556,0.941,1.664c0.005,1.327-0.447,3.545-1.501,7.147l-1.071,3.725c-0.305,1.015-0.615,2.345-0.802,3.271
		c-0.097,0.618-0.13,0.95-0.128,1.293c-0.007,0.824,0.257,1.229,0.806,1.225c1.006,0.002,2.451-1.355,3.976-3.72
		c1.573-2.506,3.322-5.969,4.247-8.613c0.481-1.428,0.797-2.601,0.929-3.775c0.118-1.041,0.291-1.562,0.575-1.965
		c0.161-0.152,0.434-0.221,1.093-0.21c0.92-0.004,1.221,0.176,1.225,0.68c-0.007,0.604-0.242,1.651-0.589,2.582
		c-0.103,0.302-0.152,0.489-0.268,1.162l-0.867,4.19c-0.401,1.818-0.689,4.713-0.685,6.479c-0.002,1.955,0.415,3.127,1.107,3.137
		c0.676-0.01,1.697-1.05,2.714-2.837c0.925-1.63,2.001-4.008,2.822-6.221c0.407-1.047,0.627-1.722,1.064-3.211
		c-0.227-0.484-0.251-0.701-0.246-1.193c0.002-1.165,0.267-2.499,0.773-3.848c0.257-0.771,0.448-0.893,1.324-0.9l0.367-0.005
		c0.667-0.023,0.827,0.167,0.83,0.907c0.005,1.171-0.438,3.144-1.074,5.078c0.452,1.244,1.864,2.019,5.678,2.983l-0.562,1.216
		c-2.486-0.204-4.936-1.062-5.792-2.411c-0.144,0.498-0.403,1.077-0.403,1.077c-2.033,5.511-3.667,8.625-5.51,10.565
		c-0.845,0.858-1.768,1.289-2.598,1.287c-0.582,0-1.188-0.242-1.629-0.708c-0.927-1.046-1.261-2.308-1.325-5.078
		c0.033-1.266,0.076-1.883,0.149-2.646C131.302,162.491,130.156,164.179,128.674,165.758"/>
	<path d="M160.986,162.699c-1.053,0.848-1.695,1.108-2.809,1.355c-0.334,0.092-1.303,0.455-2.777-0.606
		c-1.66,3.499-3.548,4.557-5.892,4.559c-2.411-0.004-3.839-1.627-3.839-4.374c-0.008-2.779,1.416-5.481,3.557-6.874
		c1.028-0.651,3.745-1.779,5.646-0.945c2.299,1.015,1.147,2.985,0.402,2.507c-2.975-1.962-4.554-0.235-5.303,0.436
		c-0.988,0.893-1.663,2.691-1.658,4.569c-0.003,1.727,0.67,2.707,1.805,2.711c1.478-0.007,3.079-1.851,3.486-4.033
		c-0.031-0.071-0.031-0.071-0.031-0.131c-0.188-0.62-0.249-1.013-0.249-1.512c-0.004-0.419,0.056-1.326,0.308-2.306
		c0.123-0.588,0.411-0.502,0.631-0.871c0,0,0.606-1.23,1.811-0.266c0.22,0.255,0.198,1.108,0.202,1.778
		c0.016,0.836-0.096,1.562-0.47,2.828c1.325,1.413,2.339,0.806,2.779,0.642c0.45-0.179,1.323-0.605,2.103-1.525L160.986,162.699z"/>
	<path d="M164.469,158.145c-1.293,2.621-2.716,3.984-3.722,4.77l-0.299-1.994c0.871-0.944,1.19-1.151,2.53-3.979
		c-0.265-0.486-0.422-0.952-0.419-1.345c-0.007-0.402,0.151-1.085,0.326-1.576c0.13-0.311,0.367-0.405,1.067-0.373
		c0.976,0.035,1.09,0.056,1.317,0.183c0.177,0.131,0.267,0.434,0.269,0.838c-0.004,0.55-0.094,0.987-0.463,1.85
		c1.023,0.364,1.149,0.435,1.54,0.615c1.361,0.664,1.85,1.379,1.854,2.826c0,0.873-0.25,1.847-0.863,3.425
		c-0.334,0.888-0.497,1.51-0.494,1.816c-0.003,0.302,0.152,0.525,0.468,0.522c0.858,0.011,2.46-1.17,4.828-3.546l0.008,2.568
		c-2.526,2.181-4.54,3.258-6.069,3.256c-1.112,0.01-1.878-0.953-1.867-2.363c-0.007-0.776,0.236-1.677,0.857-3.084
		c0.463-1.143,0.67-1.89,0.667-2.413C165.997,159.283,165.478,158.602,164.469,158.145"/>
	<path d="M389.384,162.582c-1.866,2.309-3.118,3.359-3.98,3.36c-0.843,0.004-1.458-1.197-1.463-2.833
		c0.021-1.61,0.579-3.281,1.579-4.278c0.585-0.618,1.533-1.081,2.2-1.085c0.656,0,1.254,0.459,2.292,1.876L389.384,162.582z
		 M390.442,157.775c-1.098-1.415-1.897-1.91-3.034-1.91c-1.18,0.006-2.616,0.705-3.737,1.818c-1.48,1.519-2.372,3.762-2.372,5.98
		c0.002,2.402,1.484,4.345,3.324,4.347c1.106-0.006,2.477-0.904,4.216-2.807l-0.009,0.332c0.006,1.729,0.479,2.467,1.526,2.467
		c1.513-0.002,3.035-0.896,5.544-3.258l-0.007-2.571c-1.175,1.354-1.998,2.096-3.019,2.838c-0.525,0.407-0.893,0.587-1.137,0.583
		c-0.219,0.002-0.337-0.206-0.337-0.518c-0.004-0.529,0.5-3.019,1.079-5.262l3.111-12.166h-2.494L390.442,157.775z"/>
	<path d="M418.2,165.541c1.688-0.961,2.702-1.786,4.025-3.358l0.007,2.557c-1.195,1.136-2.617,2.028-4.029,2.552L418.2,165.541z
		 M416.253,158.706c-1.761,1.257-2.794,1.688-4.093,1.687c-2.505,0.002-4.188-1.877-4.203-4.719c0.01-4.585,3.843-8.464,8.29-8.46
		c2.207-0.006,3.888,1.135,3.894,2.621c-0.002,0.459-0.171,0.676-0.641,0.954c-0.378,0.188-0.961,0.375-1.175,0.364
		c-0.283-0.004-0.496-0.219-0.772-0.771c-0.192-0.365-0.289-0.523-0.531-0.778c-0.303-0.29-0.771-0.421-1.375-0.414
		c-1.169-0.005-2.363,0.482-3.12,1.289c-1.139,1.252-2.069,3.608-2.078,5.236c0.005,1.66,0.945,2.616,2.526,2.623
		c0.939-0.002,1.953-0.446,2.972-1.296l0.979-0.992c0.413-0.43,0.647-0.708,0.774-0.891c0.271-0.377,0.426-0.522,0.653-0.495
		l0.097,0.005c0.034-0.003,0.144,0,0.305,0h0.24c0.463,0.008,0.621,0.087,0.617,0.338c0.007,0.243-0.223,1.262-0.671,3.016
		c-0.073,0.246-0.129,0.554-0.229,0.898l-0.223,0.982c-0.787,3.079-1.298,4.437-2.263,5.668c-1.242,1.575-3.048,2.391-5.241,2.397
		c-1.479,0.002-3.332-0.496-3.98-1.043c-0.13-0.124-0.235-0.375-0.24-0.587c0.016-0.397,0.292-1.194,0.582-1.542
		c0.085-0.12,0.255-0.212,0.384-0.215c0.274-0.006,0.643,0.159,1.134,0.438c0.955,0.577,1.939,0.886,2.897,0.895
		c0.864-0.004,1.578-0.221,2.153-0.749c0.798-0.671,1.442-2.425,2.157-5.69L416.253,158.706z"/>
	<path d="M430.119,162.55c-0.034,0.031-0.096,0.096-0.174,0.187c-1.308,1.822-2.878,3.109-3.735,3.107
		c-0.864-0.005-1.517-1.199-1.517-2.833c0.007-2.717,1.852-5.359,3.747-5.359c0.669,0.004,1.117,0.373,2.005,1.447
		c0.115,0.152,0.223,0.256,0.283,0.333l0.094,0.099L430.119,162.55z M436.653,162.181c-1.892,2.065-3.484,3.39-4.13,3.384
		c-0.217-0.002-0.346-0.251-0.346-0.588c-0.006-0.4,0.247-1.777,0.493-2.803l1.579-6.362l-2.514-0.004l-0.508,1.937
		c-0.871-1.352-1.821-1.974-3.021-1.969c-1.208,0-2.682,0.742-3.826,1.917c-1.438,1.467-2.333,3.748-2.331,5.938
		c-0.015,2.338,1.54,4.278,3.348,4.28c1.177-0.006,2.315-0.737,4.252-2.83c-0.03,0.24-0.03,0.488-0.029,0.651
		c0.002,1.437,0.585,2.209,1.58,2.209c1.409-0.004,3.138-0.984,5.462-3.202L436.653,162.181z"/>
	<path d="M450.938,158.754c-0.083-0.003-0.219,0.032-0.4,0.144c-0.489,0.266-2.113,1.617-3.568,2.944l-0.493,0.423
		c-0.064,0.354-0.064,0.508-0.136,0.818c-0.206,1.036-0.425,1.995-0.971,4.305l-0.131,0.456h-2.535
		c0.804-3.047,1.153-4.55,1.496-6.278c0.181-1.027,0.271-1.596,0.271-1.999c0-0.564-0.188-0.866-0.531-0.875
		c-0.123,0.009-0.232,0.07-0.532,0.208c-0.499,0.3-2.148,1.688-3.742,3.217c-0.111,0.127-0.307,0.283-0.536,0.502
		c-0.034,0.806-0.047,1.261-0.047,2.007l0.006,1.413c0.007,0.292,0.012,0.601,0.009,0.914l0.041,0.9l-2.38-0.002
		c-0.046-0.584-0.084-0.898-0.102-1.643c-0.068-1.051-0.124-2.31-0.12-2.763c-0.004-1.604,0.695-4.404,1.825-7.614l2.627,0.006
		l-0.156,0.432c-0.517,1.424-0.796,2.219-1.113,3.382c2.762-2.704,4.141-3.69,5.269-3.693c1.103-0.008,1.904,1.268,1.904,2.936
		c0,0.11,0.003,0.308-0.021,0.547c0.339-0.242,0.524-0.366,0.983-0.773c1.915-1.568,3.011-2.184,3.966-2.186
		c1.125,0.011,2.001,1.169,2.001,2.621c0,0.612-0.202,1.539-0.704,2.952c-0.495,1.359-0.733,2.376-0.723,2.962
		c-0.008,0.484,0.206,0.823,0.485,0.821c0.739,0.006,2.611-1.469,4.655-3.66l-0.004,2.562c-2.254,2.248-4.017,3.269-5.514,3.272
		c-0.487-0.011-0.995-0.196-1.259-0.429c-0.527-0.574-0.839-1.404-0.846-2.191c-0.002-0.943,0.288-2.224,0.942-4.049
		c0.323-0.976,0.501-1.709,0.517-2.026C451.364,159.005,451.18,158.747,450.938,158.754"/>
	<path d="M464.244,157.99c-0.007-0.436-0.292-0.674-0.71-0.68c-1.332-0.007-2.938,1.881-3.409,4.11
		C462.672,160.517,464.24,159.221,464.244,157.99 M469.039,164.739c-3.08,2.245-5.94,3.27-8.806,3.27
		c-0.823-0.011-1.29-0.133-1.621-0.435c-0.73-0.807-1.265-2.471-1.273-3.79c0.007-4.374,3.077-8.35,6.466-8.348
		c1.508,0.004,2.371,0.829,2.373,2.275c0.009,1.046-0.465,2.039-1.357,2.923c-0.861,0.864-2.095,1.58-4.354,2.504l-0.605,0.249
		c-0.032,0.165-0.06,0.337-0.049,0.455c0,1.508,0.543,2.279,1.562,2.277c2.341,0.006,4.598-1.171,7.684-3.944L469.039,164.739z"/>
	<path fill="#FFFFFF" d="M242.457,69.99L242.457,69.99c-5.144-25.491-24.044-30.704-32.104-32.924l-0.873-0.24
		c-6.667-1.844-23.109-1.96-35.735-1.73l-5.805,0.097l-0.372,5.155l-0.964,17.692c0,0,4.557,0.714,4.921,0.768
		c0.224,0.053,0.975,0.289,1.388,1.136c1.021,4.174,1.868,30.067,2.034,46.32l-2.22-0.352c0,0-0.812-0.144-1.602-0.268
		c-0.22-0.346-0.526-0.817-0.969-1.551l-0.092-0.138c0,0-0.1-0.149-0.111-0.18c-3.345-5.042-9.22-45.036-12.736-79.184l-0.688-6.631
		l-6.392,1.868c-28.173,8.26-29.489,8.907-29.985,9.144l-2.451,1.216l-0.55,2.7c-5.042,25.787-13.514,68.071-14.779,71.815
		c-0.639,1.822-2.2,3.269-3.402,4.16c0.03-17.396,1.021-44.662,2.138-50.479c0.54-0.495,1.539-1.11,2.394-1.438l3.586-1.354
		l0.031-3.85l-0.001-16.207l-6.031,0.545l-41.449,3.723c0,0-2.71,10.372-4.361,16.677c-2.989-8.475-7.308-20.797-7.308-20.797
		L1.315,37.371L0,57.465l2.462,1.804c2.582,1.912,7.271,5.713,9.1,8.031c1.089,2.495,1.507,10.908,1.5,20.556
		c-0.001,13.723-0.828,29.873-1.68,34.777c-1.088,0.937-3.518,2.5-5.77,3.651l-3.014,1.534l-0.007,3.402l0.007,14.445l44.941-0.896
		c0,0-0.267-7.96-0.35-10.237c0.18,0.536,1.812,5.521,3.561,10.78c2.787,0.004,4.962,0.009,7.792,0.009
		c0.86-3.152,1.519-5.641,1.535-5.648c-0.033,0.452-0.268,5.669-0.268,5.669l43.351-0.896l0.877-4.354
		c0.539-2.597,0.639-5.734,0.648-8.093c-0.009-0.706-0.007-1.337-0.02-1.862l30.136-0.002c0,0-0.003-0.206,0-0.227
		c0.655-0.001,21.189-0.035,33.313-0.05l0.492,14.718l5.331,0.021c3.032,0.021,29.676,0.128,34.432-0.365
		c6.334-0.633,16.707-4.904,24.508-12.77C243.622,120.636,247.562,95.354,242.457,69.99"/>
	<path fill="#FFFFFF" d="M588.232,58.102c0.557-4.499,2.646-14.754,2.682-14.86l1.425-6.896l-29.459,0.983
		c0,0-0.192,0.67-0.352,1.169c-5.634-2.252-22.725-5.903-32.038,7.958c-0.032,0.054-0.068,0.097-0.079,0.14
		c-6.418-11.445-21.048-13.84-27.016-14.816c-10.291-1.693-31.702-1.781-38.013-1.767l-5.438-0.002l-0.26,5.273
		c-0.063,1.104-0.09,2.124-0.142,3.07l-1.069,0.079l-40.125,2.503l-0.552,22.35l4.307,1.106c1.1,0.291,2.446,0.967,2.953,1.469
		c0.534,3.978,0.886,20.022,1.01,34.554l-20.044-6.564l-0.701,6.845c-0.654,6.306-1.768,16.313-2.265,19.251
		c-0.167,0.133-0.421,0.274-0.579,0.283c-0.004-0.002-0.021-0.015-0.064-0.062c-0.511-1.739-0.725-5.846-0.728-11.29
		c-0.002-16.828,1.958-45.732,3.087-52.642c0.767-0.397,2.148-0.871,3.289-1.09l4.45-0.825l0.092-4.538l0.264-16.348l-55.022-1.069
		l-0.135,5.509l-0.453,17.608l4.287,1.106c2.265,0.592,5.008,1.892,5.674,2.676c1.443,4.19,2.001,19.066,2.014,32.807
		c0.001,11.85-0.426,22.8-0.997,25.27c-0.162,0.507-1.781,1.646-3.296,2.102l-4.128,1.284l0.17,4.319l0.96,18.496l58.379-0.549
		l0.427,7.994l45.655-0.228l-0.247-9.007l0.062,0.02c0.986,0.189,10.205,1.789,33.871-1.117c13.998-1.704,24.07-6.871,29.943-15.193
		l-0.259,21.893l24.588,0.824c0,0,0.017-0.646,0.027-0.873c4.219,1.098,10.495,1.816,16.832-0.9
		c13.99-5.971,18.996-17.208,18.989-28.579c0.005-4.744-0.87-9.509-2.32-13.92c-1.831-6.034-8.265-14.379-14.944-21.893
		c3.332-0.376,13.027-1.441,13.027-1.441L588.232,58.102z M466.187,118.473l-5.071,0.641l0.12,5.112l0.09,2.026
		c-1.244,0.32-2.283,0.593-2.294,0.592c-0.023-0.021-0.133-0.106-0.228-0.25c-0.646-2.507-0.898-10.407-0.898-19.955
		c0.002-16.13,0.692-36.758,1.377-43.474c0.295-0.075,0.591-0.146,0.836-0.188l4.91-0.734l-0.164-4.966l-0.065-1.963
		c0.688,0.097,2.418,0.603,2.883,1.545c0.733,4.196,1.316,24.309,1.309,40.386c0.002,9.766-0.206,17.99-0.726,20.25
		C468.001,117.951,466.873,118.383,466.187,118.473"/>
	<path d="M6.527,42.737l37.559-1.364l11.972,34.052l7.958-30.44l37.561-3.38l-0.01,10.137c0,0-3.829,1.417-5.49,4.063
		c-1.884,3.052-3.937,66.283-1.719,69.328c2.239,3.036,4.713,3.715,4.713,3.715s0.352,6.118-0.463,10.143l-32.983,0.688
		l0.456-10.377c0,0,1.836,0.673,4.816-3.386c1.717-2.359,0.677-50.272,0.677-50.272l-17.067,63.352l-18.892-57.26
		c0,0-2.572,39.341,0.336,43.728c2.528,3.822,5.514,3.385,5.514,3.385l0.345,10.483l-33.677,0.676l-0.003-8.783
		c0,0,6.423-3.279,8.235-5.761c1.561-2.082,4.368-55.228-0.211-61.32C13.282,60.328,5.729,54.8,5.729,54.8L6.527,42.737z"/>
	<path d="M165.423,107.006c-6.169-8.582-13.726-81.85-13.726-81.85s-27.71,8.123-29.105,8.801c0,0-13.191,67.443-14.98,72.584
		c-1.902,5.416-7.45,8.125-7.45,8.125l0.906,9.925h28.186l0.002-12.181c0,0-4.295,0.054-4.993-1.981
		c-0.933-2.775,2.013-13.807,2.013-13.807l12.826-1.125c0,0,4.751,12.403,4.115,14.2c-0.917,2.602-6.418,3.17-6.418,3.17
		l0.009,11.487l34.529-0.049l0.002-13.021C168.073,110.426,168.578,112.133,165.423,107.006 M129.071,81.188l4.983-20.306
		l3.779,19.783L129.071,81.188z"/>
	<path d="M237.017,71.089c-4.633-23.002-21.355-26.771-29.025-28.92c-7.906-2.198-33.858-1.521-34.874-1.521l-0.696,12.682
		c0,0,3.956,0.517,5.676,4.576c1.711,4.052,2.569,46.501,2.403,57.479c-0.18,10.99-6.87,13.017-6.87,13.017l0.345,10.647
		c0,0,29.21,0.146,33.82-0.333c4.992-0.497,14.113-4.06,21.138-11.155C238.288,118.138,241.647,94.088,237.017,71.089
		 M212.275,113.36c-2.691,5.942-4.631,9.07-9.454,10.649c-0.509,0.167-0.337-63.238-0.337-63.238
		c1.032-0.004,8.77,0.517,11.005,12.681C215.72,85.628,215.182,106.929,212.275,113.36"/>
	<path d="M363.253,38.019l43.975,0.852l-0.174,10.823c0,0-6.052,1.076-7.373,3.888c-1.209,2.532-5.856,64.252-2.062,69.495
		c3.77,5.243,10.124,1.853,10.812-1.684c0.686-3.56,2.401-20.136,2.401-20.136l10.311,3.375l-1.027,32.811l-52.916,0.508
		l-0.68-13.184c0,0,5.832-1.698,7.051-5.93c1.467-5.196,2.224-52.582-1.216-61.709c-1.448-3.895-9.451-5.91-9.451-5.91
		L363.253,38.019z"/>
	<path d="M423.764,46.163l35.062-2.197l0.508,13.526c0,0-4.291,0.599-5.166,2.531c-1.083,2.427-3.253,64.424-0.343,69.156
		c2.659,4.286,6.534,3.045,6.534,3.045l0.341,13.017l-34.695,0.174l-0.687-12.518c0,0,5.499-1.86,6.195-6.437
		c0.416-2.846,0.116-59.652-1.213-62.72c-1.488-3.435-6.858-4.734-6.858-4.734L423.764,46.163z"/>
	<path d="M514.187,83.921c12.366-7.947,15.976-19.33,13.046-30.444c-3.025-11.501-15.311-14.68-24.738-16.224
		c-10.977-1.801-36.24-1.696-37.271-1.7c0,0-0.667,14.216-0.165,14.212c0.496-0.003,6.183,0.671,7.898,5.238
		c1.302,3.472,2.58,59.02,0.513,64.428c-1.553,4.081-6.69,4.558-6.69,4.558l0.514,12.346c0,0,8.655,1.689,32.113-1.188
		c25.656-3.129,31.089-17.411,31.086-30.949C530.506,90.681,514.187,83.921,514.187,83.921 M496.485,55.514
		c0.858,0,9.582,0.956,9.228,9.913c-0.345,8.969-7.533,10.564-9.398,10.206L496.485,55.514z M495.643,114.693l0.844-20.634
		c2.812,0.226,9.459,1.355,9.283,10.486C505.598,112.834,496.661,114.867,495.643,114.693"/>
	<path d="M566.986,42.745l18.498-0.622c0,0-2.183,10.536-2.766,15.324c-0.521,4.54-1.82,18.106-1.82,18.106l-11.678,1.273
		c0,0-1.602-12.957-8.697-16.676c-8.014-4.189-11.926,4.956-3.213,13.538c4.789,4.699,22.453,22.536,25.305,31.942
		c1.601,4.906,7.508,26.668-13.572,35.677c-9.21,3.946-19.235-1.359-19.57-2.367c-0.352-1.009-0.414,3.508-0.414,3.508
		l-13.679-0.457l0.4-34.712l11.581,0.667c0,0,0.101,6.097,3.472,10.366c2.929,3.703,9.794,5.586,11.001-0.838
		c1.191-6.425-18.26-24.747-23.542-32.521c-3.828-5.678-10.999-23.763-3.193-35.404c8.232-12.272,24.455-6.395,25.988-5.627
		c2.476,1.237,4.129,2.481,4.129,2.481C565.788,46.516,566.986,42.745,566.986,42.745"/>
	<path d="M248.062,88.302c-2.271,2.357-3.468,5.471-3.397,8.737c0.079,3.261,1.41,6.3,3.763,8.562
		c2.361,2.272,5.472,3.478,8.751,3.414c-0.02-0.003,2.284-0.258,2.284-0.258l-1.039-5.05l-1.317,0.152
		c-1.929,0.034-3.722-0.667-5.103-1.983c-1.371-1.305-2.149-3.065-2.178-4.945c-0.036-1.907,0.654-3.701,1.963-5.07
		c1.312-1.363,3.074-2.145,4.96-2.179c0.016,0.001,1.489,0.12,1.489,0.12l0.953-5.071l-2.557-0.208
		C253.375,84.592,250.319,85.926,248.062,88.302"/>
	<path d="M352.842,82.194c0.021,0.003-2.091,0.226-2.091,0.226l0.968,5.065l1.232-0.136c1.904-0.041,3.687,0.65,5.069,1.963
		c1.36,1.299,2.141,3.07,2.186,4.964c-0.004,0.048,0.004,0.103,0.007,0.152c-0.011,3.841-3.1,7.01-6.95,7.113l-0.977-0.062
		l-0.651,5.128l1.727,0.085c6.768-0.163,12.144-5.792,11.991-12.532c-0.054-3.268-1.404-6.317-3.77-8.584
		C359.224,83.322,356.123,82.111,352.842,82.194"/>
	<path d="M304.328,45.25c-13.423,0.3-25.912,5.807-35.195,15.507c-9.292,9.705-14.234,22.436-13.934,35.845
		c0.623,27.699,23.657,49.744,51.367,49.14c27.709-0.629,49.743-23.682,49.112-51.377c-0.326-15.356-7.561-29.535-19.811-38.89
		c0,0-0.787,1.025-1.569,2.048c0.782-1.027,1.557-2.052,1.557-2.052C326.827,48.621,315.642,44.995,304.328,45.25 M260.374,96.502
		c-0.269-12.047,4.157-23.478,12.491-32.18c8.329-8.697,19.533-13.639,31.581-13.912c10.287-0.232,20.076,2.938,28.283,9.171
		c11.02,8.396,17.503,21.116,17.801,34.897c0.007,0.347,0.013,0.69,0.007,1.026c0.002,24.402-19.558,44.515-44.086,45.068
		C281.581,141.124,260.913,121.346,260.374,96.502"/>
	<path fill="#FFFFFF" d="M331.428,86.117c0.158,7.443-5.722,13.596-13.18,13.768c-7.446,0.175-13.609-5.722-13.768-13.167
		c-0.179-7.448,5.738-13.613,13.176-13.77C325.091,72.771,331.26,78.68,331.428,86.117"/>
	<path d="M317.6,70.368c-4.293,0.097-8.301,1.844-11.258,4.945c-2.97,3.106-4.55,7.169-4.445,11.462
		c0.088,4.293,1.859,8.292,4.956,11.263c3.097,2.953,7.177,4.531,11.449,4.428c8.848-0.199,15.898-7.553,15.71-16.396v-0.008
		c-0.105-4.303-1.843-8.297-4.963-11.264C325.944,71.839,321.881,70.265,317.6,70.368 M310.431,94.302
		c-2.118-2.018-3.307-4.728-3.366-7.643c-0.071-2.91,0.988-5.672,3.004-7.773c2.014-2.105,4.735-3.292,7.641-3.356
		c2.915-0.072,5.666,0.997,7.766,3.003c2.119,2.011,3.313,4.722,3.382,7.645c-0.003,0.081,0.006,0.146,0,0.228
		c0,5.903-4.741,10.765-10.66,10.909C315.288,97.382,312.533,96.306,310.431,94.302"/>
	<path fill="#FFFFFF" d="M304.654,86.119c0.176,7.463-5.725,13.612-13.173,13.791c-7.451,0.161-13.613-5.743-13.787-13.182
		c-0.133-7.448,5.745-13.607,13.176-13.783C298.337,72.789,304.489,78.678,304.654,86.119"/>
	<path d="M290.803,70.366c-8.825,0.199-15.868,7.567-15.696,16.424c0.217,8.854,7.589,15.891,16.425,15.687
		c4.304-0.09,8.305-1.859,11.271-4.962c2.876-3.007,4.441-6.922,4.441-11.065c0.003-0.133-0.008-0.258-0.009-0.386
		c-0.09-4.28-1.851-8.267-4.937-11.235C299.199,71.856,295.118,70.275,290.803,70.366 M280.271,86.67
		c-0.114-5.995,4.655-11.008,10.666-11.141c2.918-0.062,5.692,1.008,7.786,3.03c2.098,2.008,3.298,4.716,3.347,7.613v0.004
		c0.075,2.912-0.987,5.67-3.003,7.775c-2.019,2.113-4.737,3.303-7.645,3.376C285.424,97.459,280.413,92.683,280.271,86.67
		 M307.235,86.063L307.235,86.063v-0.003V86.063z"/>
	<path d="M291.899,83.749c0.053,2.37-1.646,4.339-3.801,4.39c-2.165,0.045-3.97-1.837-4.014-4.214
		c-0.051-2.363,1.65-4.333,3.798-4.383C290.037,79.499,291.854,81.382,291.899,83.749"/>
	<path d="M326.002,88.366c0.05,2.368-1.643,4.334-3.789,4.395c-2.164,0.031-3.961-1.847-4.013-4.203
		c-0.052-2.398,1.647-4.357,3.813-4.409C324.175,84.101,325.955,86.008,326.002,88.366"/>
	<path d="M328.918,107.196c-1.41,0.123-2.444,1.377-2.32,2.803c0.807,8.732-5.341,16.76-13.983,18.259
		c-8.438,1.449-16.659-3.616-19.125-11.795c-0.42-1.361-1.858-2.14-3.22-1.724c-1.374,0.418-2.14,1.846-1.728,3.21
		c3.216,10.682,13.948,17.288,24.945,15.399c11.292-1.967,19.289-12.428,18.242-23.831
		C331.612,108.104,330.343,107.055,328.918,107.196"/>
	<path d="M277.812,44.154c-1.316,0.554-1.933,2.059-1.396,3.378l2.635,6.3c0.55,1.325,2.056,1.943,3.368,1.392
		c1.316-0.549,1.944-2.05,1.383-3.364l-2.613-6.315C280.635,44.227,279.123,43.601,277.812,44.154"/>
	<path d="M293.129,37.961c-1.393,0.339-2.242,1.733-1.891,3.12l1.632,6.783c0.344,1.381,1.743,2.23,3.124,1.9
		c1.379-0.342,2.227-1.742,1.889-3.119l-1.635-6.778C295.907,38.48,294.505,37.629,293.129,37.961"/>
	<path d="M307.511,39.141l-1.195,7.39c-0.229,1.413,0.729,2.74,2.139,2.966c1.398,0.223,2.734-0.733,2.951-2.134l1.194-7.405
		c0.229-1.406-0.719-2.728-2.141-2.954C309.067,36.769,307.746,37.729,307.511,39.141"/>
	<path d="M320.823,40.706l-3.678,7.178c-0.626,1.265-0.122,2.824,1.124,3.465c1.29,0.654,2.828,0.146,3.486-1.117l3.649-7.18
		c0.652-1.267,0.15-2.83-1.105-3.474C323.011,38.924,321.471,39.433,320.823,40.706"/>
	<path d="M333.192,45.928l-4.551,6.018c-0.852,1.141-0.615,2.762,0.515,3.609c1.144,0.868,2.75,0.637,3.62-0.5l4.537-6.028
		c0.85-1.134,0.629-2.754-0.515-3.607C335.663,44.558,334.052,44.787,333.192,45.928"/>
	<path d="M266.438,52.479c-1.097,0.905-1.264,2.529-0.359,3.631l4.129,5.024c0.899,1.104,2.534,1.262,3.624,0.362
		c1.103-0.906,1.284-2.532,0.37-3.633l-4.13-5.032C269.156,51.73,267.537,51.567,266.438,52.479"/>
	<path d="M256.423,64.057c-0.628,1.285-0.096,2.838,1.191,3.459l6.237,3.054c1.256,0.627,2.81,0.093,3.436-1.184
		c0.632-1.28,0.098-2.826-1.186-3.45l-6.226-3.056C258.59,62.26,257.045,62.779,256.423,64.057"/>
	<path d="M344.269,53.477l-6.891,6.111c-1.083,0.933-1.171,2.575-0.228,3.64c0.95,1.065,2.576,1.155,3.661,0.219l6.875-6.114
		c1.063-0.943,1.165-2.573,0.219-3.638C346.966,52.625,345.332,52.53,344.269,53.477"/>
	<path d="M351.836,64.29l-7.257,3.58c-1.27,0.628-1.806,2.179-1.153,3.461c0.617,1.268,2.166,1.788,3.455,1.158l7.225-3.577
		c1.286-0.639,1.812-2.181,1.181-3.459C354.656,64.175,353.107,63.651,351.836,64.29"/>
	<path d="M250.179,77.22c-0.321,1.379,0.542,2.774,1.921,3.094l5.897,1.35c1.375,0.325,2.774-0.539,3.085-1.931
		c0.319-1.396-0.538-2.779-1.934-3.103l-5.893-1.343C251.868,74.962,250.489,75.832,250.179,77.22"/>
	<path d="M357.373,73.452l-8.082,2.346c-1.37,0.4-2.157,1.833-1.766,3.195c0.414,1.377,1.841,2.163,3.202,1.769l8.085-2.354
		c1.389-0.403,2.179-1.824,1.765-3.203C360.183,73.844,358.761,73.057,357.373,73.452"/>
	<path d="M608,50.206h-1.431l-0.003-5.314l-1.942,5.314h-0.847l-1.939-5.314l-0.002,5.314h-1.433v-6.588h2.314l1.483,3.898
		l1.484-3.898H608V50.206z M599.602,44.892h-2.005v5.314h-1.581v-5.314h-2.011v-1.273h5.597V44.892z"/>
</g>
</svg>
